<svg width="32" height="32" viewBox="0 0 32 32" fill="none" xmlns="http://www.w3.org/2000/svg">
    <path d="M9.75477 25.629L9.75476 25.629C9.4925 25.8913 9.06688 25.8913 8.80463 25.629L8.53818 25.8955L8.80463 25.629L7.69769 24.5221C7.43581 24.2602 7.43528 23.8359 7.69655 23.5731C7.69659 23.5731 7.69664 23.573 7.69668 23.573L15.2176 16.0174L15.5687 15.6647L15.2176 15.312L7.69706 7.75584L7.69698 7.75576C7.43558 7.49324 7.43601 7.069 7.69818 6.80684L8.80511 5.6999C9.06737 5.43764 9.49299 5.43764 9.75525 5.6999L19.2445 15.1896L19.2445 15.1896C19.5068 15.4519 19.5068 15.8775 19.2445 16.1398L9.75477 25.629ZM24.4856 25.4591L23.9856 25.4589L23.9856 25.4591C23.9856 25.8809 23.8803 26.1295 23.7682 26.2636C23.6641 26.3882 23.5179 26.4591 23.3139 26.4591L23.3138 26.4591L21.7484 26.4591L21.7483 26.4591C21.4839 26.4591 21.3412 26.3779 21.2515 26.268C21.1479 26.1411 21.0513 25.8969 21.0513 25.4591L21.0513 16.8305L21.0513 16.8299L21.0765 6.17026L21.0765 6.17014C21.0773 5.79967 21.3776 5.5 21.7484 5.5L23.3138 5.5C23.6847 5.5 23.9856 5.80095 23.9856 6.17184L23.9853 19.592L23.9853 19.592C23.9853 19.8773 23.9855 20.2694 23.9857 20.7043C23.986 21.2637 23.9863 21.894 23.9863 22.4592L23.986 24.334L23.9857 25.1308L23.9857 25.3711L23.9857 25.4362L23.9856 25.4532L23.9856 25.4575L23.9856 25.4586L23.9856 25.4588L23.9856 25.4589L24.4856 25.4591Z" stroke="currentColor"/>
</svg>
