<svg width="32" height="32" viewBox="0 0 32 32" fill="none" xmlns="http://www.w3.org/2000/svg">
    <path d="M21.7316 6.33005L21.7316 6.33004C21.9938 6.06778 22.4194 6.06778 22.6817 6.33004L22.9481 6.0636L22.6817 6.33004L23.7886 7.43698C24.0505 7.69886 24.0511 8.12314 23.7898 8.38596C23.7897 8.386 23.7897 8.38604 23.7896 8.38609L16.2688 15.9416L15.9177 16.2943L16.2687 16.6471L23.7893 24.2032L23.7893 24.2033C24.0507 24.4658 24.0503 24.8901 23.7881 25.1522L22.6812 26.2592C22.419 26.5214 21.9933 26.5214 21.7311 26.2592L12.2418 16.7694L12.2418 16.7694C11.9796 16.5072 11.9796 16.0816 12.2418 15.8193L21.7316 6.33005ZM7.00068 6.49997L7.50068 6.50013V6.49997C7.50068 6.07812 7.60603 5.8296 7.71808 5.6955C7.8222 5.5709 7.96843 5.49996 8.17243 5.5H8.17252H9.73796H9.73804C10.0024 5.49996 10.1452 5.58113 10.2349 5.69102C10.3384 5.81794 10.435 6.0622 10.435 6.49997V15.1286V15.1292L10.4098 25.7888L10.4098 25.7889C10.409 26.1594 10.1087 26.4591 9.73796 26.4591H8.17252C7.80163 26.4591 7.50068 26.1581 7.50068 25.7872L7.50103 12.3671V12.367C7.50103 12.0818 7.50082 11.6897 7.5006 11.2548C7.50031 10.6954 7.49998 10.065 7.5 9.4999L7.50036 7.62506L7.50058 6.82823L7.50065 6.58802L7.50067 6.52284L7.50068 6.5059L7.50068 6.50159L7.50068 6.5005L7.50068 6.50023V6.50016L7.00068 6.49997Z" stroke="currentColor"/>
</svg>
