<svg width="32" height="32" viewBox="0 0 32 32" fill="none" xmlns="http://www.w3.org/2000/svg">
    <path d="M25.6256 19.3808L25.6256 19.3808C25.8878 19.643 25.8878 20.0686 25.6256 20.3309L25.9775 20.6829L25.6256 20.3309L24.5186 21.4378C24.2568 21.6997 23.8325 21.7003 23.5697 21.439C23.5696 21.4389 23.5696 21.4389 23.5695 21.4389L16.014 13.918L15.6613 13.5669L15.3085 13.9179L7.75239 21.4385L7.75231 21.4386C7.48978 21.7 7.06555 21.6995 6.80338 21.4374L5.69645 20.3304C5.43419 20.0682 5.43419 19.6425 5.69645 19.3803L15.1862 9.89104L15.1862 9.89103C15.4484 9.62877 15.8741 9.62877 16.1363 9.89103L25.6256 19.3808Z" stroke="currentColor"/>
</svg>
