<svg width="32" height="32" viewBox="0 0 32 32" fill="none" xmlns="http://www.w3.org/2000/svg">
    <path d="M12.755 25.629L12.755 25.6291C12.4927 25.8913 12.0671 25.8913 11.8048 25.6291L11.4529 25.981L11.8048 25.6291L10.6979 24.5221C10.436 24.2602 10.4355 23.836 10.6968 23.5731C10.6968 23.5731 10.6968 23.5731 10.6969 23.573L18.2178 16.0175L18.5689 15.6648L18.2178 15.312L10.6973 7.75587L10.6972 7.75579C10.4358 7.49326 10.4362 7.06903 10.6984 6.80686L11.8053 5.69993C12.0676 5.43767 12.4932 5.43767 12.7555 5.69993L22.2447 15.1897L22.2447 15.1897C22.507 15.4519 22.507 15.8775 22.2447 16.1398L12.755 25.629Z" stroke="currentColor"/>
</svg>
