<svg width="32" height="32" viewBox="0 0 32 32" fill="none" xmlns="http://www.w3.org/2000/svg">
    <path d="M20.1864 6.33006L20.1864 6.33005C20.4487 6.0678 20.8743 6.0678 21.1366 6.33005L21.4885 5.97809L21.1366 6.33006L22.2435 7.43699C22.5054 7.69887 22.5059 8.12315 22.2446 8.38597C22.2446 8.38601 22.2446 8.38606 22.2445 8.3861L14.7236 15.9416L14.3725 16.2944L14.7236 16.6471L22.2441 24.2032L22.2442 24.2033C22.5056 24.4658 22.5052 24.8901 22.243 25.1522L21.1361 26.2592C20.8738 26.5214 20.4482 26.5214 20.186 26.2592L10.6967 16.7694L10.6967 16.7694C10.4344 16.5072 10.4344 16.0816 10.6967 15.8193L20.1864 6.33006Z" stroke="currentColor"/>
</svg>
