<svg width="32" height="32" viewBox="0 0 32 32" fill="none" xmlns="http://www.w3.org/2000/svg">
    <path d="M5.6967 11.9482L5.69669 11.9482C5.43444 11.6859 5.43444 11.2603 5.69669 10.9981L5.34473 10.6461L5.69669 10.9981L6.80363 9.89114C7.06551 9.62925 7.48979 9.62872 7.75261 9.89C7.75265 9.89004 7.7527 9.89008 7.75274 9.89013L15.3083 17.411L15.661 17.7621L16.0137 17.411L23.5699 9.89051L23.57 9.89043C23.8325 9.62902 24.2567 9.62946 24.5189 9.89163L25.6258 10.9986C25.8881 11.2608 25.8881 11.6864 25.6258 11.9487L16.1361 21.4379L16.1361 21.438C15.8738 21.7002 15.4482 21.7002 15.186 21.438L5.6967 11.9482Z" stroke="currentColor"/>
</svg>
