<svg width="32" height="32" viewBox="0 0 32 32" fill="none" xmlns="http://www.w3.org/2000/svg">
    <path d="M21.5492 11.5416H22.0492V11.0416V9.01452C22.0492 8.55884 22.6035 8.32909 22.9259 8.65141L26.3042 12.0298C26.3042 12.0298 26.3042 12.0298 26.3042 12.0298C26.5048 12.2303 26.5047 12.5555 26.3042 12.756L22.9259 16.1343C22.9259 16.1343 22.9259 16.1344 22.9259 16.1344C22.6032 16.457 22.0492 16.2268 22.0492 15.7713V13.7443V13.2443H21.5492H6.34652C6.06291 13.2443 5.83301 13.0144 5.83301 12.7307V12.0551C5.83301 11.7715 6.06291 11.5416 6.34652 11.5416H21.5492ZM10.2384 19.1497V19.6497H10.7384H25.9411C26.2247 19.6497 26.4546 19.8796 26.4546 20.1632V20.8388C26.4546 21.1225 26.2247 21.3524 25.9411 21.3524H10.7384H10.2384V21.8524V23.8794C10.2384 24.335 9.68437 24.565 9.36177 24.2425C9.36177 24.2425 9.36176 24.2425 9.36176 24.2425L5.98339 20.8641C5.7829 20.6636 5.78286 20.3385 5.98339 20.1379C5.9834 20.1379 5.98341 20.1379 5.98341 20.1379L9.36177 16.7595C9.68399 16.4373 10.2384 16.6668 10.2384 17.1226V19.1497Z" stroke="currentColor"/>
</svg>
