<svg width="32" height="32" viewBox="0 0 32 32" fill="none" xmlns="http://www.w3.org/2000/svg">
    <path d="M18.5321 6.72322C18.5321 5.91176 19.465 5.55665 19.9889 6.0894C19.9891 6.08957 19.9892 6.08974 19.9894 6.08991L29.4683 15.8074C29.4686 15.8077 29.4688 15.8079 29.4691 15.8082C29.806 16.1582 29.806 16.7295 29.4691 17.0795C29.4688 17.0797 29.4686 17.08 29.4683 17.0802L19.9882 26.7989C19.4693 27.3309 18.5321 26.9809 18.5321 26.1644V20.6098V20.1098H18.0321H10.3563C9.89338 20.1098 9.50169 19.7263 9.50169 19.2211V13.6665C9.50169 13.1613 9.89338 12.7779 10.3563 12.7779H18.0321H18.5321V12.2779V6.72322ZM12.1139 24.5443V26.8588C12.1139 26.9763 12.0213 27.0531 11.9366 27.0531H7.1956C4.49206 27.0531 2.27734 24.8007 2.27734 21.9985V10.8892C2.27734 8.08693 4.49206 5.83456 7.1956 5.83456H11.9366C12.0213 5.83456 12.1139 5.91137 12.1139 6.02889V8.34332C12.1139 8.46085 12.0213 8.53765 11.9366 8.53765H7.1956C5.90882 8.53765 4.88952 9.60071 4.88952 10.8892V21.9985C4.88952 23.287 5.90882 24.35 7.1956 24.35H11.9366C12.0213 24.35 12.1139 24.4268 12.1139 24.5443Z" stroke="currentColor"/>
</svg>
