<svg width="32" height="32" viewBox="0 0 32 32" fill="none" xmlns="http://www.w3.org/2000/svg">
    <path d="M24.2128 15.075L24.0029 15.6258L24.5805 15.7431C26.8137 16.1967 28.5 18.1866 28.5 20.5714C28.5 23.2962 26.304 25.5 23.6 25.5H8.075C4.99972 25.5 2.5 22.9909 2.5 19.8929C2.5 17.4466 4.05741 15.3672 6.22514 14.6006L6.57163 14.4781L6.5581 14.1108C6.55382 13.9948 6.55 13.8895 6.55 13.7857C6.55 10.3103 9.34925 7.5 12.8 7.5C15.1144 7.5 17.1342 8.7626 18.2178 10.6503L18.4854 11.1165L18.931 10.8158C19.4926 10.437 20.172 10.2143 20.9 10.2143C22.8573 10.2143 24.45 11.8116 24.45 13.7857C24.45 14.2404 24.3647 14.6764 24.2128 15.075ZM9.70344 18.3571H11.9625V22.6071C11.9625 23.254 12.4876 23.7857 13.1375 23.7857H15.1625C15.8124 23.7857 16.3375 23.254 16.3375 22.6071V18.3571H18.5966C19.6437 18.3571 20.1652 17.0881 19.4278 16.3467L14.9812 11.8766C14.5242 11.4172 13.7758 11.4172 13.3188 11.8766L8.87223 16.3467C8.1371 17.0857 8.64874 18.3571 9.70344 18.3571Z" stroke="currentColor"/>
</svg>
