<svg width="32" height="32" viewBox="0 0 32 32" fill="none" xmlns="http://www.w3.org/2000/svg">
    <path d="M24.375 13.375V13.875H24.875C26.3249 13.875 27.5 15.0501 27.5 16.5V21.9688C27.5 22.1242 27.3742 22.25 27.2188 22.25H24.875H24.375V22.75V27.4375C24.375 28.0242 23.8992 28.5 23.3125 28.5H7.6875C7.10085 28.5 6.625 28.0242 6.625 27.4375V22.75V22.25H6.125H3.78125C3.62575 22.25 3.5 22.1242 3.5 21.9688V16.5C3.5 15.0501 4.67507 13.875 6.125 13.875H6.625V13.375V5.5625C6.625 4.97585 7.10085 4.5 7.6875 4.5H21.1025C21.3846 4.5 21.6548 4.61195 21.854 4.81107L21.854 4.81111L24.0636 7.02025C24.2632 7.22016 24.375 7.49016 24.375 7.77197V13.375ZM21.75 26.375H22.25V25.875V21.1875V20.6875H21.75H9.25H8.75V21.1875V25.875V26.375H9.25H21.75ZM21.75 15.4375H22.25V14.9375V10.25V9.75H21.75H19.4062C19.2508 9.75 19.125 9.62425 19.125 9.46875V7.125V6.625H18.625H9.25H8.75V7.125V14.9375V15.4375H9.25H21.75ZM22.4219 17.2812C22.4219 18.2044 23.1706 18.9531 24.0938 18.9531C25.0169 18.9531 25.7656 18.2044 25.7656 17.2812C25.7656 16.3575 25.0167 15.6094 24.0938 15.6094C23.1708 15.6094 22.4219 16.3575 22.4219 17.2812Z" stroke="currentColor"/>
</svg>
