<svg viewBox="0 0 32 32" fill="currentColor" xmlns="http://www.w3.org/2000/svg">
    <path d="M19.5971 16.4933L10.1073 25.9826C9.64982 26.4401 8.90762 26.4401 8.4501 25.9826L7.34316 24.8756C6.88613 24.4186 6.88564 23.6784 7.34121 23.2204L14.8622 15.6647L7.34169 8.10856C6.88564 7.65055 6.88662 6.91032 7.34365 6.45328L8.45058 5.34635C8.9081 4.88883 9.6503 4.88883 10.1078 5.34635L19.5971 14.8361C20.0546 15.2936 20.0546 16.0358 19.5971 16.4933Z"/>
    <path d="M24.4854 22.4592C24.4853 23.4592 24.4847 25.4591 24.4847 25.4591C24.4847 26.4592 23.9854 26.9592 23.3128 26.9591L21.7474 26.9591C20.9854 26.9592 20.5504 26.4592 20.5504 25.4591L20.5504 16.8299L20.5756 6.16908C20.5769 5.52274 21.1011 5 21.7474 5L23.3128 5C23.9599 5 24.4847 5.52481 24.4847 6.17184L24.4843 19.592C24.4843 20.2391 24.4854 21.4592 24.4854 22.4592Z"/>
</svg>
