<svg  viewBox="0 0 32 32" fill="currentColor" xmlns="http://www.w3.org/2000/svg">
    <path d="M11.8883 15.4657L21.378 5.97649C21.8355 5.51897 22.5777 5.51897 23.0353 5.97649L24.1422 7.08342C24.5992 7.54045 24.5997 8.28069 24.1441 8.73869L16.6231 16.2944L24.1437 23.8505C24.5997 24.3085 24.5987 25.0488 24.1417 25.5058L23.0348 26.6127C22.5772 27.0702 21.835 27.0702 21.3775 26.6127L11.8883 17.123C11.4307 16.6655 11.4307 15.9233 11.8883 15.4657Z" />
    <path d="M7 9.49988C7.00004 8.49988 7.00068 6.49997 7.00068 6.49997C7.00068 5.49988 7.49996 4.99988 8.17252 5H9.73796C10.5 4.99988 10.935 5.49988 10.935 6.49997V15.1292L10.9098 25.79C10.9084 26.4363 10.3843 26.9591 9.73796 26.9591H8.17252C7.52549 26.9591 7.00068 26.4343 7.00068 25.7872L7.00103 12.367C7.00103 11.72 6.99996 10.4999 7 9.49988Z" />
</svg>
