<svg width="32" height="32" viewBox="0 0 32 32" fill="currentColor" xmlns="http://www.w3.org/2000/svg">
    <path d="M24.68 15.2531C24.853 14.7993 24.95 14.3031 24.95 13.7857C24.95 11.5379 23.1359 9.71429 20.9 9.71429C20.0689 9.71429 19.2927 9.96875 18.6514 10.4013C17.4828 8.36562 15.3017 7 12.8 7C9.07062 7 6.05 10.0366 6.05 13.7857C6.05 13.9002 6.05422 14.0147 6.05844 14.1292C3.69594 14.9647 2 17.2295 2 19.8929C2 23.2645 4.72109 26 8.075 26H23.6C26.5827 26 29 23.5699 29 20.5714C29 17.9462 27.1437 15.7536 24.68 15.2531ZM19.0733 19.015L14.6267 23.485C14.3652 23.748 13.9348 23.748 13.6733 23.485L9.22672 19.015C8.80063 18.5866 9.10438 17.8571 9.70344 17.8571H12.4625V13.1071C12.4625 12.7339 12.7663 12.4286 13.1375 12.4286H15.1625C15.5338 12.4286 15.8375 12.7339 15.8375 13.1071V17.8571H18.5966C19.1956 17.8571 19.4994 18.5866 19.0733 19.015Z" />
</svg>
