<svg viewBox="0 0 32 32" fill="currentColor" xmlns="http://www.w3.org/2000/svg">
    <path d="M5.33301 12.7307V12.0551C5.33301 11.4953 5.78677 11.0416 6.34652 11.0416H21.5492V9.01452C21.5492 8.1122 22.6429 7.6614 23.2794 8.29784L26.6578 11.6762C27.0536 12.072 27.0536 12.7138 26.6578 13.1095L23.2794 16.4879C22.6453 17.1219 21.5492 16.6774 21.5492 15.7713V13.7443H6.34652C5.78677 13.7443 5.33301 13.2905 5.33301 12.7307ZM25.9411 19.1497H10.7384V17.1226C10.7384 16.2225 9.64627 15.7679 9.00822 16.406L5.62984 19.7843C5.23406 20.1801 5.23406 20.8219 5.62984 21.2176L9.00822 24.596C9.64285 25.2306 10.7384 24.7847 10.7384 23.8794V21.8524H25.9411C26.5009 21.8524 26.9546 21.3986 26.9546 20.8388V20.1632C26.9546 19.6034 26.5009 19.1497 25.9411 19.1497Z" />
</svg>
