<svg width="32" height="32" viewBox="0 0 32 32" fill="currentColor" xmlns="http://www.w3.org/2000/svg">
    <path d="M29.8281 17.4275L20.3462 27.1481C19.4996 28.016 18.0321 27.4084 18.0321 26.1644V20.6098H10.3563C9.6056 20.6098 9.00169 19.9907 9.00169 19.2211V13.6665C9.00169 12.897 9.6056 12.2779 10.3563 12.2779H18.0321V6.72322C18.0321 5.485 19.4939 4.87168 20.3462 5.73959L29.8281 15.4602C30.353 16.0041 30.353 16.8836 29.8281 17.4275ZM12.6139 26.8588V24.5443C12.6139 24.1625 12.3091 23.85 11.9366 23.85H7.1956C6.19661 23.85 5.38952 23.0226 5.38952 21.9985V10.8892C5.38952 9.86506 6.19661 9.03766 7.1956 9.03766H11.9366C12.3091 9.03766 12.6139 8.72521 12.6139 8.34333V6.0289C12.6139 5.64701 12.3091 5.33457 11.9366 5.33457H7.1956C4.20427 5.33457 1.77734 7.82258 1.77734 10.8892V21.9985C1.77734 25.0651 4.20427 27.5531 7.1956 27.5531H11.9366C12.3091 27.5531 12.6139 27.2407 12.6139 26.8588Z"/>
</svg>
