<svg viewBox="0 0 32 32" fill="currentColor" xmlns="http://www.w3.org/2000/svg">
    <path d="M24.68 15.2531C24.853 14.7993 24.95 14.3031 24.95 13.7857C24.95 11.5379 23.1359 9.71429 20.9 9.71429C20.0689 9.71429 19.2927 9.96875 18.6514 10.4013C17.4828 8.36562 15.3017 7 12.8 7C9.07062 7 6.05 10.0366 6.05 13.7857C6.05 13.9002 6.05422 14.0147 6.05844 14.1292C3.69594 14.9647 2 17.2295 2 19.8929C2 23.2645 4.72109 26 8.075 26H23.6C26.5827 26 29 23.5699 29 20.5714C29 17.9462 27.1437 15.7536 24.68 15.2531ZM18.5966 17.8571H15.8375V22.6071C15.8375 22.9804 15.5338 23.2857 15.1625 23.2857H13.1375C12.7663 23.2857 12.4625 22.9804 12.4625 22.6071V17.8571H9.70344C9.10016 17.8571 8.80063 17.1277 9.22672 16.6993L13.6733 12.2292C13.9348 11.9663 14.3652 11.9663 14.6267 12.2292L19.0733 16.6993C19.4994 17.1277 19.1956 17.8571 18.5966 17.8571Z" />
</svg>
