<svg viewBox="0 0 32 32" fill="currentColor" xmlns="http://www.w3.org/2000/svg">
    <path d="M23.375 4.625H19C19 2.62559 17.4305 1 15.5 1C13.5695 1 12 2.62559 12 4.625H7.625C6.17578 4.625 5 5.84277 5 7.34375V27.2812C5 28.7822 6.17578 30 7.625 30H23.375C24.8242 30 26 28.7822 26 27.2812V7.34375C26 5.84277 24.8242 4.625 23.375 4.625ZM10.25 25.0156C9.52266 25.0156 8.9375 24.4096 8.9375 23.6562C8.9375 22.9029 9.52266 22.2969 10.25 22.2969C10.9773 22.2969 11.5625 22.9029 11.5625 23.6562C11.5625 24.4096 10.9773 25.0156 10.25 25.0156ZM10.25 19.5781C9.52266 19.5781 8.9375 18.9721 8.9375 18.2188C8.9375 17.4654 9.52266 16.8594 10.25 16.8594C10.9773 16.8594 11.5625 17.4654 11.5625 18.2188C11.5625 18.9721 10.9773 19.5781 10.25 19.5781ZM10.25 14.1406C9.52266 14.1406 8.9375 13.5346 8.9375 12.7812C8.9375 12.0279 9.52266 11.4219 10.25 11.4219C10.9773 11.4219 11.5625 12.0279 11.5625 12.7812C11.5625 13.5346 10.9773 14.1406 10.25 14.1406ZM15.5 3.26562C16.2273 3.26562 16.8125 3.87168 16.8125 4.625C16.8125 5.37832 16.2273 5.98438 15.5 5.98438C14.7727 5.98438 14.1875 5.37832 14.1875 4.625C14.1875 3.87168 14.7727 3.26562 15.5 3.26562ZM22.5 24.1094C22.5 24.3586 22.3031 24.5625 22.0625 24.5625H14.1875C13.9469 24.5625 13.75 24.3586 13.75 24.1094V23.2031C13.75 22.9539 13.9469 22.75 14.1875 22.75H22.0625C22.3031 22.75 22.5 22.9539 22.5 23.2031V24.1094ZM22.5 18.6719C22.5 18.9211 22.3031 19.125 22.0625 19.125H14.1875C13.9469 19.125 13.75 18.9211 13.75 18.6719V17.7656C13.75 17.5164 13.9469 17.3125 14.1875 17.3125H22.0625C22.3031 17.3125 22.5 17.5164 22.5 17.7656V18.6719ZM22.5 13.2344C22.5 13.4836 22.3031 13.6875 22.0625 13.6875H14.1875C13.9469 13.6875 13.75 13.4836 13.75 13.2344V12.3281C13.75 12.0789 13.9469 11.875 14.1875 11.875H22.0625C22.3031 11.875 22.5 12.0789 22.5 12.3281V13.2344Z" />
</svg>
