<svg width="32" height="32" viewBox="0 0 32 32" fill="currentColor" xmlns="http://www.w3.org/2000/svg">
    <path d="M5 25.6562C5 26.9502 6.0498 28 7.34375 28H24.5312C25.8252 28 26.875 26.9502 26.875 25.6562V12.375H5V25.6562ZM20.625 16.0859C20.625 15.7637 20.8887 15.5 21.2109 15.5H23.1641C23.4863 15.5 23.75 15.7637 23.75 16.0859V18.0391C23.75 18.3613 23.4863 18.625 23.1641 18.625H21.2109C20.8887 18.625 20.625 18.3613 20.625 18.0391V16.0859ZM20.625 22.3359C20.625 22.0137 20.8887 21.75 21.2109 21.75H23.1641C23.4863 21.75 23.75 22.0137 23.75 22.3359V24.2891C23.75 24.6113 23.4863 24.875 23.1641 24.875H21.2109C20.8887 24.875 20.625 24.6113 20.625 24.2891V22.3359ZM14.375 16.0859C14.375 15.7637 14.6387 15.5 14.9609 15.5H16.9141C17.2363 15.5 17.5 15.7637 17.5 16.0859V18.0391C17.5 18.3613 17.2363 18.625 16.9141 18.625H14.9609C14.6387 18.625 14.375 18.3613 14.375 18.0391V16.0859ZM14.375 22.3359C14.375 22.0137 14.6387 21.75 14.9609 21.75H16.9141C17.2363 21.75 17.5 22.0137 17.5 22.3359V24.2891C17.5 24.6113 17.2363 24.875 16.9141 24.875H14.9609C14.6387 24.875 14.375 24.6113 14.375 24.2891V22.3359ZM8.125 16.0859C8.125 15.7637 8.38867 15.5 8.71094 15.5H10.6641C10.9863 15.5 11.25 15.7637 11.25 16.0859V18.0391C11.25 18.3613 10.9863 18.625 10.6641 18.625H8.71094C8.38867 18.625 8.125 18.3613 8.125 18.0391V16.0859ZM8.125 22.3359C8.125 22.0137 8.38867 21.75 8.71094 21.75H10.6641C10.9863 21.75 11.25 22.0137 11.25 22.3359V24.2891C11.25 24.6113 10.9863 24.875 10.6641 24.875H8.71094C8.38867 24.875 8.125 24.6113 8.125 24.2891V22.3359ZM24.5312 6.125H22.1875V3.78125C22.1875 3.35156 21.8359 3 21.4062 3H19.8438C19.4141 3 19.0625 3.35156 19.0625 3.78125V6.125H12.8125V3.78125C12.8125 3.35156 12.4609 3 12.0312 3H10.4688C10.0391 3 9.6875 3.35156 9.6875 3.78125V6.125H7.34375C6.0498 6.125 5 7.1748 5 8.46875V10.8125H26.875V8.46875C26.875 7.1748 25.8252 6.125 24.5312 6.125Z" />
</svg>
