<svg viewBox="0 0 32 32" fill="currentColor" xmlns="http://www.w3.org/2000/svg">
    <path d="M15.5 22C19.0899 22 22 19.0899 22 15.5C22 11.9101 19.0899 9 15.5 9C11.9101 9 9 11.9101 9 15.5C9 19.0899 11.9101 22 15.5 22Z" />
    <path fill-rule="evenodd" clip-rule="evenodd" d="M27 15.5C27 21.8513 21.8513 27 15.5 27C9.14873 27 4 21.8513 4 15.5C4 9.14873 9.14873 4 15.5 4C21.8513 4 27 9.14873 27 15.5ZM26 15.5C26 21.299 21.299 26 15.5 26C9.70101 26 5 21.299 5 15.5C5 9.70101 9.70101 5 15.5 5C21.299 5 26 9.70101 26 15.5Z" />
</svg>
