<svg width="32" height="32" viewBox="0 0 32 32" fill="currentColor" xmlns="http://www.w3.org/2000/svg">
    <path d="M28.8489 15.6997C26.4952 11.1072 21.8355 8 16.5 8C11.1645 8 6.50345 11.1094 4.15102 15.7001C4.05173 15.8965 4 16.1135 4 16.3336C4 16.5536 4.05173 16.7706 4.15102 16.967C6.50475 21.5595 11.1645 24.6667 16.5 24.6667C21.8355 24.6667 26.4965 21.5573 28.8489 16.9666C28.9482 16.7702 29 16.5532 29 16.3331C29 16.113 28.9482 15.8961 28.8489 15.6997ZM16.5 22.5833C15.2638 22.5833 14.0555 22.2168 13.0277 21.53C11.9999 20.8433 11.1988 19.8671 10.7257 18.7251C10.2527 17.5831 10.1289 16.3264 10.3701 15.114C10.6112 13.9016 11.2065 12.788 12.0806 11.9139C12.9546 11.0398 14.0683 10.4446 15.2807 10.2034C16.493 9.96227 17.7497 10.086 18.8917 10.5591C20.0338 11.0321 21.0099 11.8332 21.6967 12.861C22.3834 13.8888 22.75 15.0972 22.75 16.3333C22.7504 17.1542 22.589 17.9671 22.275 18.7256C21.9611 19.484 21.5007 20.1732 20.9203 20.7536C20.3398 21.3341 19.6507 21.7944 18.8922 22.1084C18.1338 22.4223 17.3208 22.5837 16.5 22.5833ZM16.5 12.1667C16.1281 12.1719 15.7586 12.2272 15.4015 12.3312C15.6958 12.7312 15.8371 13.2235 15.7996 13.7187C15.7621 14.214 15.5484 14.6794 15.1972 15.0306C14.846 15.3818 14.3806 15.5955 13.8854 15.633C13.3901 15.6704 12.8978 15.5292 12.4978 15.2348C12.27 16.074 12.3111 16.9636 12.6154 17.7782C12.9196 18.5928 13.4717 19.2916 14.1938 19.776C14.916 20.2605 15.7719 20.5063 16.641 20.4788C17.5102 20.4514 18.3489 20.152 19.039 19.623C19.7291 19.0939 20.236 18.3617 20.4882 17.5295C20.7404 16.6973 20.7253 15.8069 20.445 14.9838C20.1647 14.1606 19.6333 13.446 18.9256 12.9407C18.2179 12.4353 17.3696 12.1646 16.5 12.1667Z" />
</svg>
