<svg width="32" height="32" viewBox="0 0 32 32" fill="currentColor" xmlns="http://www.w3.org/2000/svg">
    <path d="M4.26844 21.3333H18.8429C18.9365 21.3334 19.0292 21.315 19.1157 21.2792C19.2023 21.2434 19.2809 21.1909 19.3471 21.1247C19.4133 21.0585 19.4658 20.9799 19.5016 20.8934C19.5374 20.8069 19.5557 20.7142 19.5557 20.6206V18.4906C19.5557 18.3969 19.5374 18.3042 19.5016 18.2177C19.4658 18.1312 19.4133 18.0526 19.3471 17.9864C19.2809 17.9202 19.2023 17.8677 19.1157 17.8319C19.0292 17.7961 18.9365 17.7777 18.8429 17.7778H4.26844C4.17482 17.7777 4.0821 17.7961 3.99559 17.8319C3.90908 17.8677 3.83047 17.9202 3.76427 17.9864C3.69807 18.0526 3.64557 18.1312 3.60977 18.2177C3.57398 18.3042 3.55559 18.3969 3.55566 18.4906V20.6206C3.55559 20.7142 3.57398 20.8069 3.60977 20.8934C3.64557 20.9799 3.69807 21.0585 3.76427 21.1247C3.83047 21.1909 3.90908 21.2434 3.99559 21.2792C4.0821 21.315 4.17482 21.3334 4.26844 21.3333ZM4.26844 7.11111H18.8429C18.9365 7.11119 19.0292 7.0928 19.1157 7.057C19.2023 7.02121 19.2809 6.96871 19.3471 6.90251C19.4133 6.83631 19.4658 6.7577 19.5016 6.67119C19.5374 6.58468 19.5557 6.49196 19.5557 6.39834V4.26834C19.5557 4.17471 19.5374 4.08199 19.5016 3.99548C19.4658 3.90897 19.4133 3.83036 19.3471 3.76416C19.2809 3.69796 19.2023 3.64546 19.1157 3.60967C19.0292 3.57387 18.9365 3.55548 18.8429 3.55556H4.26844C4.17482 3.55548 4.0821 3.57387 3.99559 3.60967C3.90908 3.64546 3.83047 3.69796 3.76427 3.76416C3.69807 3.83036 3.64557 3.90897 3.60977 3.99548C3.57398 4.08199 3.55559 4.17471 3.55566 4.26834V6.39834C3.55559 6.49196 3.57398 6.58468 3.60977 6.67119C3.64557 6.7577 3.69807 6.83631 3.76427 6.90251C3.83047 6.96871 3.90908 7.02121 3.99559 7.057C4.0821 7.0928 4.17482 7.11119 4.26844 7.11111ZM27.5557 10.6667H4.44455C4.20881 10.6667 3.98271 10.7603 3.81601 10.927C3.64931 11.0937 3.55566 11.3198 3.55566 11.5556V13.3333C3.55566 13.5691 3.64931 13.7952 3.81601 13.9619C3.98271 14.1286 4.20881 14.2222 4.44455 14.2222H27.5557C27.7914 14.2222 28.0175 14.1286 28.1842 13.9619C28.3509 13.7952 28.4446 13.5691 28.4446 13.3333V11.5556C28.4446 11.3198 28.3509 11.0937 28.1842 10.927C28.0175 10.7603 27.7914 10.6667 27.5557 10.6667ZM27.5557 24.8889H4.44455C4.20881 24.8889 3.98271 24.9825 3.81601 25.1492C3.64931 25.3159 3.55566 25.542 3.55566 25.7778V27.5556C3.55566 27.7913 3.64931 28.0174 3.81601 28.1841C3.98271 28.3508 4.20881 28.4444 4.44455 28.4444H27.5557C27.7914 28.4444 28.0175 28.3508 28.1842 28.1841C28.3509 28.0174 28.4446 27.7913 28.4446 27.5556V25.7778C28.4446 25.542 28.3509 25.3159 28.1842 25.1492C28.0175 24.9825 27.7914 24.8889 27.5557 24.8889Z" />
</svg>
