<svg viewBox="0 0 32 32" fill="currentColor" xmlns="http://www.w3.org/2000/svg">
    <g clip-path="url(#clip0_37_143)">
        <path d="M15.576 10.0144L5.33319 18.4506V27.5556C5.33319 27.7913 5.42684 28.0174 5.59354 28.1841C5.76024 28.3508 5.98633 28.4444 6.22208 28.4444L12.4476 28.4283C12.6826 28.4272 12.9076 28.333 13.0733 28.1664C13.239 27.9998 13.3321 27.7744 13.3321 27.5394V22.2222C13.3321 21.9865 13.4257 21.7604 13.5924 21.5937C13.7591 21.427 13.9852 21.3333 14.221 21.3333H17.7765C18.0123 21.3333 18.2384 21.427 18.4051 21.5937C18.5718 21.7604 18.6654 21.9865 18.6654 22.2222V27.5356C18.665 27.6525 18.6878 27.7684 18.7323 27.8766C18.7768 27.9847 18.8422 28.0831 18.9248 28.1659C19.0074 28.2487 19.1055 28.3145 19.2135 28.3593C19.3215 28.4041 19.4373 28.4272 19.5543 28.4272L25.7776 28.4444C26.0134 28.4444 26.2395 28.3508 26.4062 28.1841C26.5729 28.0174 26.6665 27.7913 26.6665 27.5556V18.4444L16.426 10.0144C16.3056 9.9174 16.1556 9.86448 16.001 9.86448C15.8463 9.86448 15.6964 9.9174 15.576 10.0144ZM31.7554 15.7483L27.111 11.92V4.225C27.111 4.04819 27.0407 3.87862 26.9157 3.7536C26.7907 3.62857 26.6211 3.55833 26.4443 3.55833H23.3332C23.1564 3.55833 22.9868 3.62857 22.8618 3.7536C22.7368 3.87862 22.6665 4.04819 22.6665 4.225V8.25889L17.6926 4.16667C17.2153 3.77388 16.6163 3.55912 15.9982 3.55912C15.38 3.55912 14.7811 3.77388 14.3037 4.16667L0.240967 15.7483C0.17346 15.8041 0.117609 15.8727 0.0766045 15.9501C0.0356 16.0275 0.0102461 16.1122 0.0019913 16.1994C-0.00626348 16.2866 0.00274269 16.3745 0.0284952 16.4582C0.0542478 16.5419 0.0962419 16.6197 0.152078 16.6872L1.56874 18.4094C1.62443 18.4772 1.69292 18.5332 1.7703 18.5744C1.84768 18.6156 1.93242 18.6412 2.01968 18.6496C2.10695 18.658 2.19501 18.6491 2.27883 18.6234C2.36266 18.5978 2.4406 18.5558 2.50819 18.5L15.576 7.73667C15.6964 7.63963 15.8463 7.58671 16.001 7.58671C16.1556 7.58671 16.3056 7.63963 16.426 7.73667L29.4943 18.5C29.5618 18.5558 29.6396 18.5978 29.7233 18.6236C29.807 18.6493 29.895 18.6583 29.9822 18.6501C30.0694 18.6418 30.1541 18.6165 30.2315 18.5755C30.3088 18.5345 30.3774 18.4786 30.4332 18.4111L31.8499 16.6889C31.9056 16.621 31.9474 16.5428 31.9729 16.4587C31.9983 16.3747 32.0069 16.2864 31.9982 16.199C31.9894 16.1116 31.9634 16.0268 31.9218 15.9494C31.8801 15.8721 31.8236 15.8038 31.7554 15.7483Z"/>
    </g>
    <defs>
        <clipPath id="clip0_37_143">
            <rect width="32" height="32"/>
        </clipPath>
    </defs>
</svg>
