<svg  viewBox="0 0 29 30" fill="currentColor" xmlns="http://www.w3.org/2000/svg">
    <path d="M22.2314 14.5469H11.2573V9.98469C11.2573 8.23237 12.6601 6.77653 14.4124 6.75883C16.1824 6.74113 17.6294 8.17927 17.6294 9.94487V10.6529C17.6294 11.2414 18.1029 11.7149 18.6914 11.7149H20.1074C20.696 11.7149 21.1694 11.2414 21.1694 10.6529V9.94487C21.1694 6.22783 18.1383 3.20552 14.4212 3.21879C10.7042 3.23207 7.71729 6.2942 7.71729 10.0112V14.5469H6.65527C5.48264 14.5469 4.53125 15.4983 4.53125 16.6709V23.751C4.53125 24.9237 5.48264 25.875 6.65527 25.875H22.2314C23.4041 25.875 24.3555 24.9237 24.3555 23.751V16.6709C24.3555 15.4983 23.4041 14.5469 22.2314 14.5469ZM16.2134 21.273C16.2134 22.2509 15.4213 23.043 14.4434 23.043C13.4654 23.043 12.6733 22.2509 12.6733 21.273V19.149C12.6733 18.171 13.4654 17.3789 14.4434 17.3789C15.4213 17.3789 16.2134 18.171 16.2134 19.149V21.273Z" />
</svg>
