<svg viewBox="0 0 32 32" fill="currentColor" xmlns="http://www.w3.org/2000/svg">
    <path d="M27 20.9V3.35C27 2.50625 26.5286 2 25.7429 2H9.71429C7.04286 2 5 4.19375 5 7.0625V23.9375C5 26.8062 7.04286 29 9.71429 29H25.7429C26.3714 29 27 28.4937 27 27.65V26.8062C27 26.4688 26.8429 26.1313 26.5286 25.7938C26.3714 24.95 26.3714 22.5875 26.5286 21.9125C26.8429 21.7437 27 21.4062 27 20.9ZM12.0714 10.8594C12.0714 10.7475 12.1128 10.6402 12.1865 10.5611C12.2602 10.4819 12.3601 10.4375 12.4643 10.4375H15.2143V7.48438C15.2143 7.37249 15.2557 7.26518 15.3294 7.18606C15.403 7.10695 15.503 7.0625 15.6071 7.0625H17.9643C18.0685 7.0625 18.1684 7.10695 18.2421 7.18606C18.3158 7.26518 18.3571 7.37249 18.3571 7.48438V10.4375H21.1071C21.2113 10.4375 21.3113 10.4819 21.3849 10.5611C21.4586 10.6402 21.5 10.7475 21.5 10.8594V13.3906C21.5 13.5025 21.4586 13.6098 21.3849 13.6889C21.3113 13.7681 21.2113 13.8125 21.1071 13.8125H18.3571V16.7656C18.3571 16.8775 18.3158 16.9848 18.2421 17.0639C18.1684 17.1431 18.0685 17.1875 17.9643 17.1875H15.6071C15.503 17.1875 15.403 17.1431 15.3294 17.0639C15.2557 16.9848 15.2143 16.8775 15.2143 16.7656V13.8125H12.4643C12.3601 13.8125 12.2602 13.7681 12.1865 13.6889C12.1128 13.6098 12.0714 13.5025 12.0714 13.3906V10.8594ZM23.7 25.625H9.71429C8.77143 25.625 8.14286 24.95 8.14286 23.9375C8.14286 22.925 8.92857 22.25 9.71429 22.25H23.7V25.625Z"/>
</svg>
