<svg width="24" height="24" viewBox="0 0 32 32" fill="currentColor" xmlns="http://www.w3.org/2000/svg">
    <path d="M16.0001 31.1111C17.9623 31.1111 19.554 29.5194 19.554 27.5556H12.4462C12.4462 29.5194 14.0379 31.1111 16.0001 31.1111ZM27.9662 22.7939C26.8929 21.6406 24.8845 19.9056 24.8845 14.2222C24.8845 9.90555 21.8579 6.45 17.7768 5.60222V4.44444C17.7768 3.46278 16.9812 2.66666 16.0001 2.66666C15.019 2.66666 14.2234 3.46278 14.2234 4.44444V5.60222C10.1423 6.45 7.11569 9.90555 7.11569 14.2222C7.11569 19.9056 5.10736 21.6406 4.03403 22.7939C3.7007 23.1522 3.55292 23.5806 3.5557 24C3.56181 24.9111 4.27681 25.7778 5.33903 25.7778H26.6612C27.7234 25.7778 28.439 24.9111 28.4445 24C28.4473 23.5806 28.2995 23.1517 27.9662 22.7939Z" />
</svg>
