<svg viewBox="0 0 32 32" fill="currentColor" xmlns="http://www.w3.org/2000/svg">
    <path d="M28.3104 10.9348L26.0594 13.1858C25.8299 13.4153 25.4588 13.4153 25.2293 13.1858L19.8094 7.76587C19.5799 7.53638 19.5799 7.16528 19.8094 6.93579L22.0604 4.68481C22.9735 3.77173 24.4578 3.77173 25.3758 4.68481L28.3104 7.61938C29.2283 8.53247 29.2283 10.0168 28.3104 10.9348ZM17.8758 8.86939L5.05353 21.6917L4.01837 27.6243C3.87677 28.425 4.57501 29.1184 5.3758 28.9817L11.3084 27.9417L24.1307 15.1194C24.3602 14.8899 24.3602 14.5188 24.1307 14.2893L18.7108 8.86939C18.4764 8.63989 18.1053 8.63989 17.8758 8.86939ZM10.0584 20.593C9.78986 20.3245 9.78986 19.8948 10.0584 19.6262L17.5779 12.1067C17.8465 11.8381 18.2762 11.8381 18.5447 12.1067C18.8133 12.3752 18.8133 12.8049 18.5447 13.0735L11.0252 20.593C10.7567 20.8616 10.327 20.8616 10.0584 20.593ZM8.29572 24.6995H10.6395V26.4719L7.49005 27.0237L5.9715 25.5051L6.52326 22.3557H8.29572V24.6995Z" />
</svg>
