<svg viewBox="0 0 32 32" fill="currentColor" xmlns="http://www.w3.org/2000/svg">
    <path d="M25.3125 13.5938H18.2812V6.5625C18.2812 5.69971 17.5815 5 16.7188 5H15.1562C14.2935 5 13.5938 5.69971 13.5938 6.5625V13.5938H6.5625C5.69971 13.5938 5 14.2935 5 15.1562V16.7188C5 17.5815 5.69971 18.2812 6.5625 18.2812H13.5938V25.3125C13.5938 26.1753 14.2935 26.875 15.1562 26.875H16.7188C17.5815 26.875 18.2812 26.1753 18.2812 25.3125V18.2812H25.3125C26.1753 18.2812 26.875 17.5815 26.875 16.7188V15.1562C26.875 14.2935 26.1753 13.5938 25.3125 13.5938Z"/>
</svg>
