<svg viewBox="0 0 32 32" fill="currentColor" xmlns="http://www.w3.org/2000/svg">
    <mask id="path-1-inside-1_37_174" fill="white">
        <path fill-rule="evenodd" clip-rule="evenodd" d="M15.5 27C21.8513 27 27 21.8513 27 15.5C27 9.14873 21.8513 4 15.5 4C9.14873 4 4 9.14873 4 15.5C4 21.8513 9.14873 27 15.5 27ZM15.5 26C21.299 26 26 21.299 26 15.5C26 9.70101 21.299 5 15.5 5C9.70101 5 5 9.70101 5 15.5C5 21.299 9.70101 26 15.5 26Z"/>
    </mask>
    <path d="M26 15.5C26 21.299 21.299 26 15.5 26V28C22.4036 28 28 22.4036 28 15.5H26ZM15.5 5C21.299 5 26 9.70101 26 15.5H28C28 8.59644 22.4036 3 15.5 3V5ZM5 15.5C5 9.70101 9.70101 5 15.5 5V3C8.59644 3 3 8.59644 3 15.5H5ZM15.5 26C9.70101 26 5 21.299 5 15.5H3C3 22.4036 8.59644 28 15.5 28V26ZM25 15.5C25 20.7467 20.7467 25 15.5 25V27C21.8513 27 27 21.8513 27 15.5H25ZM15.5 6C20.7467 6 25 10.2533 25 15.5H27C27 9.14873 21.8513 4 15.5 4V6ZM6 15.5C6 10.2533 10.2533 6 15.5 6V4C9.14873 4 4 9.14873 4 15.5H6ZM15.5 25C10.2533 25 6 20.7467 6 15.5H4C4 21.8513 9.14873 27 15.5 27V25Z"  mask="url(#path-1-inside-1_37_174)"/>
</svg>
