<svg  viewBox="0 0 32 32" fill="currentColor" xmlns="http://www.w3.org/2000/svg">
    <path d="M27.0938 4.56251H21.2344L20.7754 3.64942C20.6782 3.45421 20.5284 3.29001 20.3429 3.17528C20.1575 3.06055 19.9437 2.99985 19.7256 3.00001H14.1445C13.9269 2.99917 13.7135 3.05965 13.5287 3.1745C13.3439 3.28936 13.1952 3.45395 13.0996 3.64942L12.6406 4.56251H6.78125C6.57405 4.56251 6.37534 4.64482 6.22882 4.79133C6.08231 4.93784 6 5.13656 6 5.34376V6.90626C6 7.11346 6.08231 7.31217 6.22882 7.45869C6.37534 7.6052 6.57405 7.68751 6.78125 7.68751H27.0938C27.301 7.68751 27.4997 7.6052 27.6462 7.45869C27.7927 7.31217 27.875 7.11346 27.875 6.90626V5.34376C27.875 5.13656 27.7927 4.93784 27.6462 4.79133C27.4997 4.64482 27.301 4.56251 27.0938 4.56251ZM8.59766 25.8027C8.63492 26.3978 8.89754 26.9562 9.33206 27.3644C9.76658 27.7727 10.3403 27.9999 10.9365 28H22.9385C23.5347 27.9999 24.1084 27.7727 24.5429 27.3644C24.9775 26.9562 25.2401 26.3978 25.2773 25.8027L26.3125 9.25001H7.5625L8.59766 25.8027Z" />
</svg>
