<svg width="24" height="24" viewBox="0 0 32 32" fill="currentColor" xmlns="http://www.w3.org/2000/svg">
    <path d="M28.8729 21.9429C28.9921 21.2819 28.9921 20.6069 28.8729 19.946L30.0555 19.2476C30.193 19.1679 30.2526 19.0038 30.2068 18.8491C29.8996 17.8366 29.3725 16.9179 28.6849 16.1585C28.5795 16.0413 28.4099 16.0132 28.2724 16.0929L27.0898 16.7913C26.5901 16.3554 26.0172 16.0179 25.3983 15.7929V14.396C25.3983 14.2366 25.2883 14.096 25.1371 14.0632C24.1149 13.8288 23.0743 13.8382 22.1026 14.0632C21.9513 14.096 21.8413 14.2366 21.8413 14.396V15.7929C21.2225 16.0179 20.6495 16.3554 20.1499 16.7913L18.9672 16.0929C18.8343 16.0132 18.6601 16.0413 18.5547 16.1585C17.8671 16.9179 17.34 17.8366 17.0329 18.8491C16.987 19.0038 17.0512 19.1679 17.1841 19.2476L18.3668 19.946C18.2476 20.6069 18.2476 21.2819 18.3668 21.9429L17.1841 22.6413C17.0466 22.721 16.987 22.8851 17.0329 23.0398C17.34 24.0523 17.8671 24.9663 18.5547 25.7304C18.6601 25.8476 18.8297 25.8757 18.9672 25.796L20.1499 25.0976C20.6495 25.5335 21.2225 25.871 21.8413 26.096V27.4929C21.8413 27.6523 21.9513 27.7929 22.1026 27.8257C23.1248 28.0601 24.1653 28.0507 25.1371 27.8257C25.2883 27.7929 25.3983 27.6523 25.3983 27.4929V26.096C26.0172 25.871 26.5901 25.5335 27.0898 25.0976L28.2724 25.796C28.4053 25.8757 28.5795 25.8476 28.6849 25.7304C29.3725 24.971 29.8996 24.0523 30.2068 23.0398C30.2526 22.8851 30.1884 22.721 30.0555 22.6413L28.8729 21.9429ZM23.6244 23.2179C22.3959 23.2179 21.4013 22.196 21.4013 20.9444C21.4013 19.6929 22.4005 18.671 23.6244 18.671C24.8483 18.671 25.8476 19.6929 25.8476 20.9444C25.8476 22.196 24.8529 23.2179 23.6244 23.2179ZM11.1564 16.4444C14.3972 16.4444 17.0237 13.7585 17.0237 10.4444C17.0237 7.13038 14.3972 4.44444 11.1564 4.44444C7.91566 4.44444 5.28914 7.13038 5.28914 10.4444C5.28914 13.7585 7.91566 16.4444 11.1564 16.4444ZM20.3791 27.0616C20.2736 27.0054 20.1682 26.9398 20.0674 26.8788L19.7052 27.0944C19.4302 27.2538 19.1185 27.3429 18.8068 27.3429C18.3072 27.3429 17.8259 27.1273 17.4821 26.7523C16.6433 25.8241 16.0015 24.6944 15.6394 23.4898C15.3873 22.6601 15.7265 21.7835 16.4599 21.3476L16.822 21.1319C16.8174 21.0101 16.8174 20.8882 16.822 20.7663L16.4599 20.5507C15.7265 20.1194 15.3873 19.2382 15.6394 18.4085C15.6806 18.2726 15.7402 18.1366 15.7861 18.0007C15.6119 17.9866 15.4423 17.9444 15.2635 17.9444H14.498C13.4804 18.4226 12.3482 18.6944 11.1564 18.6944C9.96463 18.6944 8.83701 18.4226 7.81482 17.9444H7.04932C3.64813 17.9444 0.888672 20.7663 0.888672 24.2444V26.1944C0.888672 27.4366 1.87419 28.4444 3.0889 28.4444H19.2239C19.6869 28.4444 20.1178 28.2944 20.4707 28.046C20.4157 27.8679 20.3791 27.6851 20.3791 27.4929V27.0616Z"/>
</svg>
