<svg viewBox="0 0 29 30" fill="currentColor" xmlns="http://www.w3.org/2000/svg">
    <path d="M14.4434 15.4531C17.5719 15.4531 20.1074 12.9176 20.1074 9.78906C20.1074 6.66055 17.5719 4.125 14.4434 4.125C11.3148 4.125 8.7793 6.66055 8.7793 9.78906C8.7793 12.9176 11.3148 15.4531 14.4434 15.4531ZM18.4082 16.8691H17.6692C16.6869 17.3205 15.5939 17.5771 14.4434 17.5771C13.2928 17.5771 12.2043 17.3205 11.2175 16.8691H10.4785C7.19513 16.8691 4.53125 19.533 4.53125 22.8164V24.6572C4.53125 25.8299 5.48264 26.7812 6.65527 26.7812H22.2314C23.4041 26.7812 24.3555 25.8299 24.3555 24.6572V22.8164C24.3555 19.533 21.6916 16.8691 18.4082 16.8691Z" />
</svg>
