<svg width="32" height="32" viewBox="0 0 32 32" fill="none" xmlns="http://www.w3.org/2000/svg">
    <path d="M24.875 13.375V7.77197C24.875 7.35742 24.7104 6.96045 24.4175 6.66699L22.2075 4.45752C21.9146 4.16455 21.5171 4 21.1025 4H7.6875C6.82471 4 6.125 4.69971 6.125 5.5625V13.375C4.39893 13.375 3 14.7739 3 16.5V21.9688C3 22.4004 3.34961 22.75 3.78125 22.75H6.125V27.4375C6.125 28.3003 6.82471 29 7.6875 29H23.3125C24.1753 29 24.875 28.3003 24.875 27.4375V22.75H27.2188C27.6504 22.75 28 22.4004 28 21.9688V16.5C28 14.7739 26.6011 13.375 24.875 13.375ZM21.75 25.875H9.25V21.1875H21.75V25.875ZM21.75 14.9375H9.25V7.125H18.625V9.46875C18.625 9.90039 18.9746 10.25 19.4062 10.25H21.75V14.9375ZM24.0938 18.4531C23.4468 18.4531 22.9219 17.9282 22.9219 17.2812C22.9219 16.6338 23.4468 16.1094 24.0938 16.1094C24.7407 16.1094 25.2656 16.6338 25.2656 17.2812C25.2656 17.9282 24.7407 18.4531 24.0938 18.4531Z" fill="#72B7A1"/>
</svg>
