<svg width="32" height="32" viewBox="0 0 32 32" fill="none" xmlns="http://www.w3.org/2000/svg">
    <path d="M18.5 4.625V5.125H19H23.375C24.5317 5.125 25.5 6.10223 25.5 7.34375V27.2812C25.5 28.5228 24.5317 29.5 23.375 29.5H7.625C6.46832 29.5 5.5 28.5228 5.5 27.2812V7.34375C5.5 6.10223 6.46832 5.125 7.625 5.125H12H12.5V4.625C12.5 2.88505 13.8621 1.5 15.5 1.5C17.1379 1.5 18.5 2.88505 18.5 4.625ZM8.4375 23.6562C8.4375 24.669 9.23012 25.5156 10.25 25.5156C11.2699 25.5156 12.0625 24.669 12.0625 23.6562C12.0625 22.6435 11.2699 21.7969 10.25 21.7969C9.23012 21.7969 8.4375 22.6435 8.4375 23.6562ZM8.4375 18.2188C8.4375 19.2315 9.23012 20.0781 10.25 20.0781C11.2699 20.0781 12.0625 19.2315 12.0625 18.2188C12.0625 17.206 11.2699 16.3594 10.25 16.3594C9.23012 16.3594 8.4375 17.206 8.4375 18.2188ZM8.4375 12.7812C8.4375 13.794 9.23012 14.6406 10.25 14.6406C11.2699 14.6406 12.0625 13.794 12.0625 12.7812C12.0625 11.7685 11.2699 10.9219 10.25 10.9219C9.23012 10.9219 8.4375 11.7685 8.4375 12.7812ZM17.3125 4.625C17.3125 3.61222 16.5199 2.76562 15.5 2.76562C14.4801 2.76562 13.6875 3.61222 13.6875 4.625C13.6875 5.63778 14.4801 6.48438 15.5 6.48438C16.5199 6.48438 17.3125 5.63778 17.3125 4.625ZM22.0625 25.0625C22.5957 25.0625 23 24.6181 23 24.1094V23.2031C23 22.6944 22.5957 22.25 22.0625 22.25H14.1875C13.6543 22.25 13.25 22.6944 13.25 23.2031V24.1094C13.25 24.6181 13.6543 25.0625 14.1875 25.0625H22.0625ZM22.0625 19.625C22.5957 19.625 23 19.1806 23 18.6719V17.7656C23 17.2569 22.5957 16.8125 22.0625 16.8125H14.1875C13.6543 16.8125 13.25 17.2569 13.25 17.7656V18.6719C13.25 19.1806 13.6543 19.625 14.1875 19.625H22.0625ZM22.0625 14.1875C22.5957 14.1875 23 13.7431 23 13.2344V12.3281C23 11.8194 22.5957 11.375 22.0625 11.375H14.1875C13.6543 11.375 13.25 11.8194 13.25 12.3281V13.2344C13.25 13.7431 13.6543 14.1875 14.1875 14.1875H22.0625Z" stroke="currentColor"/>
</svg>
