<svg width="32" height="32" viewBox="0 0 32 32" fill="none" xmlns="http://www.w3.org/2000/svg">
    <path d="M21.6875 6.125V6.625H22.1875H24.5312C25.5491 6.625 26.375 7.45095 26.375 8.46875V10.3125H5.5V8.46875C5.5 7.45095 6.32595 6.625 7.34375 6.625H9.6875H10.1875V6.125V3.78125C10.1875 3.6277 10.3152 3.5 10.4688 3.5H12.0312C12.1848 3.5 12.3125 3.6277 12.3125 3.78125V6.125V6.625H12.8125H19.0625H19.5625V6.125V3.78125C19.5625 3.6277 19.6902 3.5 19.8438 3.5H21.4062C21.5598 3.5 21.6875 3.6277 21.6875 3.78125V6.125ZM7.34375 27.5C6.32595 27.5 5.5 26.6741 5.5 25.6562V12.875H26.375V25.6562C26.375 26.6741 25.5491 27.5 24.5312 27.5H7.34375ZM21.2109 15C20.6125 15 20.125 15.4875 20.125 16.0859V18.0391C20.125 18.6375 20.6125 19.125 21.2109 19.125H23.1641C23.7625 19.125 24.25 18.6375 24.25 18.0391V16.0859C24.25 15.4875 23.7625 15 23.1641 15H21.2109ZM21.2109 21.25C20.6125 21.25 20.125 21.7375 20.125 22.3359V24.2891C20.125 24.8875 20.6125 25.375 21.2109 25.375H23.1641C23.7625 25.375 24.25 24.8875 24.25 24.2891V22.3359C24.25 21.7375 23.7625 21.25 23.1641 21.25H21.2109ZM14.9609 15C14.3625 15 13.875 15.4875 13.875 16.0859V18.0391C13.875 18.6375 14.3625 19.125 14.9609 19.125H16.9141C17.5125 19.125 18 18.6375 18 18.0391V16.0859C18 15.4875 17.5125 15 16.9141 15H14.9609ZM14.9609 21.25C14.3625 21.25 13.875 21.7375 13.875 22.3359V24.2891C13.875 24.8875 14.3625 25.375 14.9609 25.375H16.9141C17.5125 25.375 18 24.8875 18 24.2891V22.3359C18 21.7375 17.5125 21.25 16.9141 21.25H14.9609ZM8.71094 15C8.11253 15 7.625 15.4875 7.625 16.0859V18.0391C7.625 18.6375 8.11253 19.125 8.71094 19.125H10.6641C11.2625 19.125 11.75 18.6375 11.75 18.0391V16.0859C11.75 15.4875 11.2625 15 10.6641 15H8.71094ZM8.71094 21.25C8.11253 21.25 7.625 21.7375 7.625 22.3359V24.2891C7.625 24.8875 8.11253 25.375 8.71094 25.375H10.6641C11.2625 25.375 11.75 24.8875 11.75 24.2891V22.3359C11.75 21.7375 11.2625 21.25 10.6641 21.25H8.71094Z" stroke="currentColor"/>
</svg>
