<svg width="32" height="32" viewBox="0 0 32 32" fill="none" xmlns="http://www.w3.org/2000/svg">
    <path d="M12.8447 24.9231L12.8447 24.9231L4.71965 16.7981C4.4268 16.5052 4.42677 16.0304 4.71966 15.7374C4.71966 15.7374 4.71967 15.7374 4.71967 15.7374L6.48738 13.9696L6.4874 13.9696C6.78027 13.6767 7.25516 13.6767 7.54803 13.9696L7.54805 13.9697L13.0214 19.443L13.375 19.7965L13.7285 19.443L25.4519 7.71966L25.0987 7.36639L25.4519 7.71965C25.7448 7.42678 26.2197 7.42678 26.5126 7.71965L28.2803 9.48742L28.6339 9.13387L28.2803 9.48743C28.5732 9.78029 28.5732 10.2552 28.2803 10.5481L13.9053 24.9231C13.6124 25.216 13.1375 25.216 12.8447 24.9231Z" stroke="currentColor"/>
</svg>
