<svg width="32" height="32" viewBox="0 0 32 32" fill="none" xmlns="http://www.w3.org/2000/svg">
    <path d="M16.5 8.5C21.634 8.5 26.1286 11.4893 28.4033 15.9264C28.4669 16.0526 28.5 16.1919 28.5 16.3331C28.5 16.4744 28.4668 16.6138 28.4032 16.74C26.1298 21.1753 21.6339 24.1667 16.5 24.1667C11.366 24.1667 6.87137 21.1774 4.59668 16.7403C4.53311 16.6142 4.5 16.4748 4.5 16.3336C4.5 16.1923 4.53312 16.0529 4.59669 15.9268C6.8701 11.4914 11.3661 8.5 16.5 8.5ZM12.7499 21.9458C13.8598 22.6874 15.1648 23.0833 16.4997 23.0833L23.25 16.3331C23.2499 14.9981 22.8541 13.6932 22.1124 12.5832C21.3707 11.4732 20.3165 10.608 19.0831 10.0971C17.8497 9.58625 16.4925 9.45258 15.1831 9.71303C13.8737 9.97348 12.671 10.6164 11.727 11.5604C10.783 12.5044 10.1401 13.7071 9.87968 15.0165C9.61923 16.3258 9.7529 17.683 10.2638 18.9164C10.7747 20.1498 11.6398 21.2041 12.7499 21.9458ZM16.5 23.0833C17.3865 23.0837 18.2644 22.9094 19.0834 22.5704C19.9026 22.2313 20.6469 21.7341 21.2738 21.1072C21.9007 20.4803 22.3979 19.736 22.737 18.9168C23.0761 18.0977 23.2504 17.2198 23.25 16.3333L16.5 23.0833ZM12.8678 15.9908C13.2034 16.1098 13.5626 16.1588 13.9231 16.1315C14.5376 16.0851 15.115 15.8199 15.5508 15.3842C15.9865 14.9484 16.2517 14.3709 16.2982 13.7564C16.3258 13.3915 16.2752 13.028 16.1531 12.6889C16.2695 12.6758 16.3867 12.6684 16.5041 12.6667C17.2681 12.6655 18.0133 12.9036 18.635 13.3476C19.2576 13.7921 19.7251 14.4208 19.9717 15.1449C20.2183 15.8691 20.2316 16.6524 20.0097 17.3845C19.7878 18.1166 19.3419 18.7607 18.7348 19.2262C18.1277 19.6916 17.3899 19.9549 16.6252 19.9791C15.8606 20.0032 15.1077 19.787 14.4724 19.3608C13.8371 18.9346 13.3514 18.3199 13.0838 17.6033C12.8907 17.0863 12.8181 16.535 12.8678 15.9908Z" stroke="currentColor"/>
</svg>
