<svg width="32" height="32" viewBox="0 0 32 32" fill="none" xmlns="http://www.w3.org/2000/svg">
    <path d="M4.26747 20.8333H4.26708C4.23918 20.8334 4.21155 20.8279 4.18578 20.8172C4.15999 20.8065 4.13657 20.7909 4.11685 20.7712C4.09712 20.7514 4.08148 20.728 4.07081 20.7022L3.6088 20.8934L4.07081 20.7022C4.06014 20.6765 4.05467 20.6488 4.05469 20.6209V20.6206L4.05469 18.4906L4.05469 18.4902C4.05467 18.4623 4.06014 18.4346 4.07081 18.4089C4.08148 18.3831 4.09712 18.3597 4.11685 18.3399C4.13657 18.3202 4.16 18.3046 4.18577 18.2939C4.21155 18.2832 4.23918 18.2778 4.26707 18.2778H4.26747H18.8419H18.8423C18.8702 18.2778 18.8978 18.2832 18.9236 18.2939C18.9494 18.3046 18.9728 18.3202 18.9925 18.3399C19.0123 18.3597 19.0279 18.3831 19.0386 18.4089C19.0492 18.4346 19.0547 18.4623 19.0547 18.4902V18.4906V20.6206V20.6209C19.0547 20.6488 19.0492 20.6765 19.0386 20.7022C19.0279 20.728 19.0123 20.7514 18.9925 20.7712C18.9728 20.7909 18.9494 20.8065 18.9236 20.8172C18.8978 20.8279 18.8702 20.8334 18.8423 20.8333H18.8419H4.26747ZM4.26747 6.61111L4.26708 6.61111C4.23918 6.61113 4.21155 6.60565 4.18577 6.59499C4.15999 6.58432 4.13657 6.56868 4.11685 6.54895C4.09712 6.52923 4.08148 6.5058 4.07081 6.48003C4.06014 6.45425 4.05467 6.42662 4.05469 6.39872V6.39833L4.05469 4.26833L4.05469 4.26794C4.05467 4.24005 4.06014 4.21242 4.07081 4.18664C4.08148 4.16086 4.09712 4.13744 4.11685 4.11771C4.13657 4.09799 4.15999 4.08234 4.18577 4.07168C4.21155 4.06101 4.23918 4.05553 4.26708 4.05556H4.26747L18.8419 4.05556L18.8423 4.05556C18.8702 4.05553 18.8978 4.06101 18.9236 4.07168C18.9494 4.08234 18.9728 4.09799 18.9925 4.11771C19.0123 4.13744 19.0279 4.16086 19.0386 4.18664C19.0492 4.21241 19.0547 4.24004 19.0547 4.26795V4.26833V6.39833V6.39872C19.0547 6.42662 19.0492 6.45425 19.0386 6.48003C19.0279 6.5058 19.0123 6.52922 18.9925 6.54895C18.9728 6.56868 18.9494 6.58432 18.9236 6.59499C18.8978 6.60565 18.8702 6.61113 18.8423 6.61111H18.8419L4.26747 6.61111ZM19.5547 6.39833V4.26833C19.5548 4.17471 19.5364 4.08199 19.5006 3.99548C19.4648 3.90897 19.4123 3.83036 19.3461 3.76416C19.2799 3.69796 19.2013 3.64546 19.1148 3.60966C19.0283 3.57387 18.9355 3.55548 18.8419 3.55556L19.5547 6.39833ZM4.44358 11.1667H27.5547C27.6578 11.1667 27.7567 11.2076 27.8297 11.2806C27.9026 11.3535 27.9436 11.4524 27.9436 11.5556V13.3333C27.9436 13.4365 27.9026 13.5354 27.8297 13.6083C27.7567 13.6812 27.6578 13.7222 27.5547 13.7222H4.44358C4.34044 13.7222 4.24152 13.6813 4.16859 13.6083C4.09566 13.5354 4.05469 13.4365 4.05469 13.3333V11.5556C4.05469 11.4524 4.09566 11.3535 4.16859 11.2806C4.24152 11.2076 4.34044 11.1667 4.44358 11.1667ZM4.44358 25.3889H27.5547C27.6578 25.3889 27.7567 25.4299 27.8297 25.5028C27.9026 25.5757 27.9436 25.6746 27.9436 25.7778V27.5556C27.9436 27.6587 27.9026 27.7576 27.8297 27.8305C27.7567 27.9035 27.6578 27.9444 27.5547 27.9444H4.44358C4.34044 27.9444 4.24152 27.9035 4.16859 27.8305C4.09566 27.7576 4.05469 27.6587 4.05469 27.5556V25.7778C4.05469 25.6746 4.09566 25.5757 4.16859 25.5028C4.24152 25.4299 4.34043 25.3889 4.44358 25.3889Z" stroke="currentColor"/>
</svg>
