<svg width="32" height="32" viewBox="0 0 32 32" fill="none" xmlns="http://www.w3.org/2000/svg">
    <g clip-path="url(#clip0_125_12076)">
        <path d="M19.1654 27.5371V27.5356V22.2222C19.1654 21.8539 19.0191 21.5006 18.7586 21.2401C18.4981 20.9797 18.1449 20.8333 17.7765 20.8333H14.221C13.8526 20.8333 13.4993 20.9797 13.2389 21.2401C12.9784 21.5006 12.8321 21.8539 12.8321 22.2222V27.5394C12.8321 27.6423 12.7914 27.7409 12.7189 27.8138C12.6464 27.8866 12.5481 27.9278 12.4454 27.9283C12.4453 27.9283 12.4452 27.9283 12.4451 27.9283L6.22208 27.9444C6.22193 27.9444 6.22177 27.9444 6.22162 27.9444C6.11865 27.9443 6.01991 27.9034 5.94709 27.8305C5.87416 27.7576 5.83319 27.6587 5.83319 27.5556V18.6865L15.8911 10.4026C15.9224 10.3779 15.9611 10.3645 16.001 10.3645C16.0408 10.3645 16.0795 10.3779 16.1108 10.4026C16.1113 10.403 16.1117 10.4034 16.1122 10.4037L26.1665 18.6805V27.5556C26.1665 27.6587 26.1255 27.7576 26.0526 27.8305L26.4062 28.1841L26.0526 27.8305C25.9798 27.9033 25.8811 27.9443 25.7782 27.9444C25.778 27.9444 25.7778 27.9444 25.7776 27.9444L19.5557 27.9272H19.5543C19.5031 27.9272 19.4525 27.9171 19.4052 27.8975C19.3579 27.8779 19.315 27.8491 19.2789 27.8129L18.9248 28.1659L19.2789 27.8129C19.2428 27.7766 19.2141 27.7336 19.1947 27.6863C19.1752 27.639 19.1652 27.5883 19.1654 27.5371ZM31.4374 16.1342L31.44 16.1363C31.457 16.1501 31.4711 16.1672 31.4815 16.1865C31.492 16.2059 31.4985 16.2271 31.5007 16.2489C31.5028 16.2708 31.5007 16.2929 31.4943 16.3139C31.488 16.3349 31.4776 16.3544 31.4636 16.3713C31.4636 16.3714 31.4636 16.3714 31.4636 16.3714L30.0478 18.0926C30.0477 18.0927 30.0476 18.0928 30.0475 18.0929C30.0336 18.1096 30.0166 18.1235 29.9974 18.1337L30.2315 18.5755L29.9974 18.1337C29.978 18.1439 29.9568 18.1503 29.935 18.1523C29.9132 18.1544 29.8912 18.1521 29.8703 18.1457C29.8494 18.1392 29.8299 18.1288 29.8131 18.1148L29.8122 18.1141L16.7438 7.35072L16.7439 7.3507L16.7397 7.34738C16.5305 7.1787 16.2698 7.08671 16.001 7.08671C15.7322 7.08671 15.4715 7.1787 15.2622 7.34739L15.2622 7.34736L15.2581 7.35073L2.19031 18.1141L2.18979 18.1145C2.17289 18.1284 2.1534 18.1389 2.13245 18.1453C2.11149 18.1518 2.08947 18.154 2.06766 18.1519C2.04585 18.1498 2.02466 18.1434 2.00531 18.1331L1.7703 18.5744L2.00531 18.1331C1.98597 18.1228 1.96885 18.1088 1.95493 18.0919L1.95489 18.0918L0.538225 16.3696L0.537288 16.3685C0.523327 16.3516 0.512829 16.3321 0.506392 16.3112C0.499953 16.2903 0.497702 16.2683 0.499765 16.2465C0.501829 16.2247 0.508168 16.2035 0.518418 16.1842L0.0771033 15.9503L0.51842 16.1842C0.528639 16.1649 0.542548 16.1478 0.559354 16.1339C0.559405 16.1338 0.559456 16.1338 0.559507 16.1337L14.6215 4.55275C14.6215 4.55272 14.6215 4.55268 14.6216 4.55264C15.0094 4.23357 15.496 4.05912 15.9982 4.05912C16.5004 4.05912 16.9871 4.23361 17.3749 4.55275L17.375 4.55278L22.3488 8.645L23.1665 9.31774V8.25889V4.225C23.1665 4.1808 23.1841 4.13841 23.2153 4.10715L22.8626 3.75441L23.2153 4.10715C23.2466 4.0759 23.289 4.05833 23.3332 4.05833H26.4443C26.4885 4.05833 26.5309 4.07589 26.5621 4.10715C26.5934 4.13841 26.611 4.1808 26.611 4.225V11.92V12.1558L26.7929 12.3058L31.4374 16.1342Z" stroke="currentColor"/>
    </g>
    <defs>
        <clipPath id="clip0_125_12076">
            <rect width="32" height="32" fill="white"/>
        </clipPath>
    </defs>
</svg>
