<svg width="32" height="32" viewBox="0 0 32 32" fill="none" xmlns="http://www.w3.org/2000/svg">
    <path d="M26.037 25.8853L26.0636 26.0282L26.1627 26.1345C26.4228 26.4138 26.5 26.6354 26.5 26.8062V27.65C26.5 28.2102 26.1027 28.5 25.7429 28.5H9.71429C7.35196 28.5 5.5 26.5643 5.5 23.9375V7.0625C5.5 4.43574 7.35196 2.5 9.71429 2.5H25.7429C26.0249 2.5 26.1962 2.58766 26.3002 2.69934C26.4084 2.81558 26.5 3.01875 26.5 3.35V20.9C26.5 21.3091 26.3796 21.425 26.292 21.472L26.0929 21.5789L26.0416 21.7991C25.948 22.2011 25.9107 23.0168 25.9107 23.7898C25.9107 24.5721 25.9493 25.4141 26.037 25.8853ZM14.9634 6.84532L15.3294 7.18606L14.9634 6.84532C14.8003 7.02049 14.7143 7.25092 14.7143 7.48438V9.9375H12.4643C12.2155 9.9375 11.9848 10.0439 11.8206 10.2203C11.6575 10.3955 11.5714 10.6259 11.5714 10.8594V13.3906C11.5714 13.6241 11.6575 13.8545 11.8206 14.0297C11.9848 14.2061 12.2155 14.3125 12.4643 14.3125H14.7143V16.7656C14.7143 16.9991 14.8003 17.2295 14.9634 17.4047C15.1277 17.5811 15.3584 17.6875 15.6071 17.6875H17.9643C18.213 17.6875 18.4437 17.5811 18.608 17.4047C18.7711 17.2295 18.8571 16.9991 18.8571 16.7656V14.3125H21.1071C21.3559 14.3125 21.5866 14.2061 21.7508 14.0297C21.914 13.8545 22 13.6241 22 13.3906V10.8594C22 10.6259 21.914 10.3955 21.7508 10.2203C21.5866 10.0439 21.3559 9.9375 21.1071 9.9375H18.8571V7.48438C18.8571 7.25092 18.7711 7.02049 18.608 6.84532L18.2421 7.18606L18.608 6.84532C18.4437 6.66895 18.213 6.5625 17.9643 6.5625H15.6071C15.3584 6.5625 15.1277 6.66895 14.9634 6.84532ZM23.7 26.125H24.2V25.625V22.25V21.75H23.7H9.71429C8.65136 21.75 7.64286 22.6499 7.64286 23.9375C7.64286 24.5471 7.83339 25.0982 8.20909 25.5017C8.58779 25.9084 9.11805 26.125 9.71429 26.125H23.7Z" stroke="currentColor"/>
</svg>
