<svg width="32" height="32" viewBox="0 0 32 32" fill="none" xmlns="http://www.w3.org/2000/svg">
    <path d="M17.4999 4.5C18.2356 4.50011 18.9697 4.56728 19.6931 4.70067C19.7208 4.70578 19.7327 4.7156 19.7395 4.72295C19.7486 4.73277 19.7578 4.74904 19.7614 4.77072C19.765 4.79242 19.7618 4.81108 19.7562 4.82371C19.752 4.83329 19.7439 4.84631 19.72 4.85987L19.9673 5.29443L19.72 4.85987C16.4959 6.69467 14.5114 10.1032 14.5114 13.8098C14.5114 20.2443 20.365 25.1317 26.7388 23.9178C26.7654 23.9128 26.7801 23.9173 26.7898 23.922C26.8024 23.9281 26.8171 23.9402 26.8284 23.959C26.8396 23.9778 26.8432 23.9959 26.8426 24.0091C26.8422 24.0189 26.8396 24.0342 26.8216 24.0564L27.2098 24.3715L26.8216 24.0564C24.5813 26.8166 21.2013 28.5 17.5 28.5C10.8677 28.5 5.5 23.1239 5.5 16.5C5.5 9.86773 10.876 4.5 17.4999 4.5ZM17.4999 4.5L17.5 4M17.4999 4.5L17.5 4M17.5 4C18.2661 4.00011 19.0306 4.07007 19.7839 4.20898L17.5 4Z" stroke="currentColor"/>
</svg>
