<svg width="32" height="32" viewBox="0 0 32 32" fill="none" xmlns="http://www.w3.org/2000/svg">
    <path d="M27.6004 23.1347L27.6002 23.1345C27.5364 23.066 27.468 22.9942 27.3959 22.9185C26.8785 22.3752 26.1673 21.6285 25.5745 20.4282C24.8976 19.0576 24.3845 17.1241 24.3845 14.2222C24.3845 10.1555 21.5371 6.89404 17.6751 6.09177L17.2768 6.00903V5.60222V4.44444C17.2768 3.73861 16.7048 3.16667 16.0001 3.16667C15.2954 3.16667 14.7234 3.73861 14.7234 4.44444V5.60222V6.00903L14.3251 6.09177C10.4631 6.89404 7.61569 10.1555 7.61569 14.2222C7.61569 17.1241 7.10257 19.0576 6.42567 20.4282C5.83289 21.6285 5.12174 22.3752 4.60434 22.9185C4.53219 22.9942 4.46382 23.066 4.40005 23.1345C4.1563 23.3966 4.05374 23.7008 4.05569 23.9966L27.6004 23.1347ZM27.6004 23.1347C27.8438 23.396 27.9465 23.7005 27.9445 23.9967L27.9445 23.997M27.6004 23.1347L27.9445 23.997M27.9445 23.997C27.9405 24.663 27.4195 25.2778 26.6612 25.2778H5.33903C4.58102 25.2778 4.06018 24.6633 4.05569 23.9967L27.9445 23.997ZM19.0133 28.0556C18.7747 29.5055 17.5159 30.6111 16.0001 30.6111C14.4843 30.6111 13.2255 29.5055 12.9869 28.0556H19.0133Z" stroke="currentColor"/>
</svg>
