<svg width="32" height="32" viewBox="0 0 32 32" fill="none" xmlns="http://www.w3.org/2000/svg">
    <path d="M17.7812 13.5938V14.0938H18.2812H25.3125C25.8992 14.0938 26.375 14.5696 26.375 15.1562V16.7188C26.375 17.3054 25.8992 17.7812 25.3125 17.7812H18.2812H17.7812V18.2812V25.3125C17.7812 25.8992 17.3054 26.375 16.7188 26.375H15.1562C14.5696 26.375 14.0938 25.8992 14.0938 25.3125V18.2812V17.7812H13.5938H6.5625C5.97585 17.7812 5.5 17.3054 5.5 16.7188V15.1562C5.5 14.5696 5.97585 14.0938 6.5625 14.0938H13.5938H14.0938V13.5938V6.5625C14.0938 5.97585 14.5696 5.5 15.1562 5.5H16.7188C17.3054 5.5 17.7812 5.97585 17.7812 6.5625V13.5938Z" stroke="currentColor"/>
</svg>
