<svg width="32" height="32" viewBox="0 0 32 32" fill="none" xmlns="http://www.w3.org/2000/svg">
    <path d="M21.7702 19.0983L21.1384 19.9062H22.1641H22.96C23.1417 19.9062 23.3118 19.9769 23.4365 20.1016L28.3028 24.9679C28.3031 24.9682 28.3034 24.9685 28.3037 24.9688C28.5638 25.2327 28.5635 25.6591 28.2998 25.9228L26.9179 27.3046L26.916 27.3065C26.6587 27.5667 26.2345 27.5694 25.9698 27.3046L21.1016 22.4365C20.9769 22.3118 20.9062 22.1417 20.9062 21.96V21.1641V20.1384L20.0983 20.7702C18.4597 22.0513 16.3994 22.8125 14.1562 22.8125C8.82204 22.8125 4.5 18.4905 4.5 13.1562C4.5 7.82204 8.82204 3.5 14.1562 3.5C19.4905 3.5 23.8125 7.82204 23.8125 13.1562C23.8125 15.3994 23.0513 17.4597 21.7702 19.0983ZM7.40625 13.1562C7.40625 16.8897 10.4282 19.9062 14.1562 19.9062C17.8897 19.9062 20.9062 16.8843 20.9062 13.1562C20.9062 9.42282 17.8843 6.40625 14.1562 6.40625C10.4228 6.40625 7.40625 9.42821 7.40625 13.1562Z" stroke="currentColor"/>
</svg>
