<svg width="32" height="32" viewBox="0 0 32 32" fill="none" xmlns="http://www.w3.org/2000/svg">
    <path d="M19.7256 3.00001H14.1445C13.9269 2.99917 13.7135 3.05965 13.5287 3.1745C13.3439 3.28936 13.1952 3.45395 13.0996 3.64942L19.7256 3.00001ZM19.7256 3.00001C19.9437 2.99985 20.1575 3.06055 20.3429 3.17528C20.5284 3.29001 20.6782 3.45421 20.7754 3.64942M19.7256 3.00001L20.7754 3.64942M20.7754 3.64942L21.2344 4.56251L20.7754 3.64942ZM9.09668 25.7715C9.126 26.2396 9.3326 26.6789 9.67441 27C10.0162 27.3211 10.4675 27.4999 10.9365 27.5L9.09668 25.7715ZM9.09668 25.7715C9.09668 25.7715 9.09668 25.7715 9.09668 25.7715M9.09668 25.7715L9.09668 25.7715M9.09668 25.7715L8.09475 9.75001H25.7803M9.09668 25.7715L25.7803 9.75001M25.7803 9.75001L24.7783 25.7715C24.7783 25.7715 24.7783 25.7715 24.7783 25.7715C24.749 26.2396 24.5424 26.6789 24.2006 27C23.8588 27.3211 23.4075 27.4999 22.9385 27.5C22.9385 27.5 22.9384 27.5 22.9384 27.5H10.9366L25.7803 9.75001ZM20.7876 4.78707L20.9261 5.06251H21.2344H27.0938C27.1683 5.06251 27.2399 5.09214 27.2926 5.14489C27.3454 5.19763 27.375 5.26917 27.375 5.34376V6.90626C27.375 6.98085 27.3454 7.05239 27.2926 7.10513C27.2399 7.15788 27.1683 7.18751 27.0938 7.18751H6.78125C6.70666 7.18751 6.63512 7.15788 6.58238 7.10513C6.52963 7.05239 6.5 6.98085 6.5 6.90626V5.34376C6.5 5.26917 6.52963 5.19763 6.58238 5.14488C6.63512 5.09214 6.70666 5.06251 6.78125 5.06251H12.6406H12.9489L13.0874 4.78707L13.5463 3.87398L13.5464 3.874L13.5488 3.86907C13.6031 3.75798 13.6876 3.66444 13.7926 3.59917C13.8977 3.5339 14.019 3.49953 14.1426 3.50001H14.1445L19.7256 3.50001L19.7259 3.50001C19.851 3.49992 19.9736 3.53472 20.0799 3.6005C20.1862 3.66628 20.2721 3.76042 20.3278 3.87234L20.3287 3.87398L20.7876 4.78707Z" stroke="currentColor"/>
</svg>
