<svg width="32" height="32" viewBox="0 0 32 32" fill="none" xmlns="http://www.w3.org/2000/svg">
    <path d="M28.6849 25.7304C28.5795 25.8476 28.4053 25.8757 28.2724 25.796L27.0898 25.0976C26.5901 25.5335 26.0172 25.871 25.3983 26.096V27.4929C25.3983 27.6523 25.2883 27.7929 25.1371 27.8257C24.1653 28.0507 23.1248 28.0601 22.1026 27.8257C21.9513 27.7929 21.8413 27.6523 21.8413 27.4929V26.096C21.2225 25.871 20.6495 25.5335 20.1499 25.0976L18.9672 25.796C18.8297 25.8757 18.6601 25.8476 18.5547 25.7304C17.8671 24.9663 17.34 24.0523 17.0329 23.0398L17.359 22.9431L17.3619 22.9423L17.5123 22.8977C17.5269 22.947 17.5122 23.0269 17.4384 23.0718C17.4381 23.072 17.4378 23.0722 17.4375 23.0724L17.4348 23.0739L17.4348 23.0739L28.6849 25.7304ZM28.6849 25.7304C29.3725 24.971 29.8996 24.0523 30.2068 23.0398L28.6849 25.7304ZM28.6186 19.5155L28.3191 19.6924L28.3808 20.0347C28.4894 20.637 28.4894 21.2519 28.3808 21.8542L28.8729 21.9429L28.6186 22.3734L29.6928 23.0078C29.4175 23.8598 28.9738 24.6372 28.4043 25.2932L27.344 24.667L27.0331 24.4834L26.761 24.7208C26.3079 25.1162 25.7884 25.4221 25.2275 25.6261L24.8983 25.7458V26.096V27.3663C24.0762 27.5386 23.2035 27.5452 22.3413 27.3661V26.096V25.7458L22.0122 25.6261C21.4512 25.4221 20.9318 25.1162 20.4786 24.7208L20.2065 24.4834L19.8956 24.667L18.8357 25.293C18.2652 24.6325 17.8218 23.8585 17.5468 23.0078L18.621 22.3734L18.9206 22.1965L18.8588 21.8542C18.7502 21.2519 18.7502 20.637 18.8588 20.0347L18.9206 19.6924L18.621 19.5155L17.5468 18.8811C17.8221 18.0291 18.2658 17.2517 18.8353 16.5957L19.8956 17.2218L20.2065 17.4055L20.4786 17.1681C20.9318 16.7727 21.4512 16.4667 22.0122 16.2628L22.3413 16.1431V15.7929V14.5225C23.1634 14.3503 24.0361 14.3437 24.8983 14.5228V15.7929V16.1431L25.2275 16.2628C25.7884 16.4667 26.3079 16.7727 26.761 17.1681L27.0331 17.4055L27.344 17.2218L28.4043 16.5957C28.9738 17.2517 29.4175 18.0291 29.6928 18.8811L28.6186 19.5155ZM29.8048 18.8149L29.8022 18.8165L29.8048 18.815L29.8048 18.8149ZM18.8068 27.8429C19.1837 27.8429 19.5531 27.7433 19.8805 27.569C19.8834 27.6475 19.8908 27.7238 19.9016 27.7978C19.6932 27.8918 19.4637 27.9444 19.2239 27.9444H3.0889C2.16082 27.9444 1.38867 27.1711 1.38867 26.1944V24.2444C1.38867 21.0319 3.93476 18.4444 7.04932 18.4444H7.70538C8.76302 18.9226 9.92716 19.1944 11.1564 19.1944C12.385 19.1944 13.5535 18.9229 14.6079 18.4444H15.1135C14.8985 19.4161 15.3063 20.4207 16.1529 20.9493C15.2556 21.5138 14.8488 22.6066 15.1608 23.6344C15.5445 24.9106 16.2234 26.1052 17.1111 27.0875L17.1135 27.0901C17.5493 27.5655 18.1631 27.8429 18.8068 27.8429ZM20.9013 20.9444C20.9013 22.4609 22.1087 23.7179 23.6244 23.7179C25.1402 23.7179 26.3476 22.4609 26.3476 20.9444C26.3476 19.4273 25.1349 18.171 23.6244 18.171C22.1139 18.171 20.9013 19.4273 20.9013 20.9444ZM16.5237 10.4444C16.5237 13.493 14.1106 15.9444 11.1564 15.9444C8.20229 15.9444 5.78914 13.493 5.78914 10.4444C5.78914 7.39592 8.20229 4.94444 11.1564 4.94444C14.1106 4.94444 16.5237 7.39592 16.5237 10.4444Z" stroke="currentColor"/>
</svg>
